<svg xmlns="http://www.w3.org/2000/svg" width="19" height="20" viewBox="0 0 19 20"><style type="text/css">  
	.st0{fill:#00344d;}
</style><path class="st0" d="M19 0.7c-0.1-0.3-0.4-0.5-0.7-0.4l-2.4 0.6c-0.2 0.1-0.4 0.2-0.4 0.5l-0.3 1.9L0.5 5c0 0 0 0 0 0 0 0 0 0 0 0 0 0-0.1 0-0.1 0 0 0-0.1 0-0.1 0 0 0-0.1 0.1-0.1 0.1 0 0 0 0-0.1 0 0 0 0 0 0 0 0 0-0.1 0.1-0.1 0.2 0 0 0 0 0 0.1 0 0.1 0 0.2 0 0.2l1.8 7.1 0.6 2.4c0 0 0 0 0 0 0 0 0 0.1 0 0.1 0 0 0 0.1 0.1 0.1 0 0 0 0 0.1 0.1 0 0 0.1 0.1 0.1 0.1 0 0 0 0 0.1 0 0.1 0 0.1 0 0.2 0h12.5c0.3 0 0.6-0.3 0.6-0.6 0-0.3-0.3-0.6-0.6-0.6h-12l-0.3-1.2h11.1c0.1 0 0.1 0 0.2 0 0 0 0 0 0.1 0 0 0 0.1 0 0.1-0.1 0 0 0 0 0.1-0.1 0 0 0.1-0.1 0.1-0.1 0 0 0-0.1 0-0.1 0 0 0-0.1 0-0.1l0 0v0l1.7-10.9 2-0.5C18.9 1.4 19.1 1 19 0.7zM2.8 12.1l-1.5-6 1.8-0.2 0.9 6.2H2.8zM5.3 12.1L4.4 5.8l1.9-0.2 0.3 6.6H5.3zM8.9 12.1H7.7L7.4 5.4l1.8-0.2L8.9 12.1zM11.4 12.1h-1.2L10.4 5l1.8-0.2L11.4 12.1zM13.7 12.1h-1.2l0.9-7.5 1.3-0.2L13.7 12.1zM5.3 16.9c-0.7 0-1.2 0.5-1.2 1.2 0 0.7 0.5 1.2 1.2 1.2 0.7 0 1.2-0.5 1.2-1.2C6.5 17.4 6 16.9 5.3 16.9zM13.1 16.9c-0.7 0-1.2 0.5-1.2 1.2 0 0.7 0.5 1.2 1.2 1.2s1.2-0.5 1.2-1.2C14.3 17.4 13.7 16.9 13.1 16.9z"/></svg>